<svg id="Layer_1" data-name="Layer 1" xmlns="http://www.w3.org/2000/svg" width="134.67" height="198" viewBox="0 0 134.67 198">
  <title>giraffe</title>
  <path d="M98,199v-5.52a31.47,31.47,0,0,1,31.37-31.38h0a31.47,31.47,0,0,1,31.38,31.38V199h6.61V165.88a38.09,38.09,0,0,0-38-38L84.94,45l-8.41,5.62v.09A928.23,928.23,0,0,1,91.25,199Z" transform="translate(-32.73 -1)" fill="#f58a43" fill-rule="evenodd"/>
  <path d="M98,199v-5.32a5.41,5.41,0,0,0-6.89.45c0,1.62.07,3.24.1,4.87Zm.13-8.41a30.93,30.93,0,0,1,2.42-9.46,5.38,5.38,0,0,0-2.42,9.46Zm4.92-14.13a32,32,0,0,1,5.25-6.18,5.39,5.39,0,0,0-5.31,5.38,5.29,5.29,0,0,0,.06.8Zm8.25-8.58a31,31,0,0,1,9.12-4.46,5.38,5.38,0,1,0-9.12,4.46Zm12.13-5.21a31.48,31.48,0,0,1,5.94-.57h0a31.84,31.84,0,0,1,4.39.31,5.38,5.38,0,0,0-10.33.26ZM137,163a31.25,31.25,0,0,1,9.61,4.21A5.38,5.38,0,1,0,137,163Zm13.84,7.53a31,31,0,0,1,3.52,3.89,5.39,5.39,0,0,0-3.52-3.89Zm7.73,11.22a31.07,31.07,0,0,1,1.95,7.27,5.38,5.38,0,0,0-1.95-7.27ZM160.78,193c0,.17,0,.34,0,.51V199h6.61v-3.45a5.4,5.4,0,0,0-6.62-2.58Zm6.62-1.53v-10a5.38,5.38,0,0,0,0,10Zm0-13.31v-4.94a5.38,5.38,0,1,0,0,4.94Zm0-9.06v-3.19a38.52,38.52,0,0,0-.57-6.58,5.37,5.37,0,0,0,.57,9.77Zm-1-11.92a37.8,37.8,0,0,0-3.52-9.23h-.24a5.38,5.38,0,1,0,3.76,9.23Zm-5.83-13a38.53,38.53,0,0,0-6.85-7.46,5.38,5.38,0,1,0,6.85,7.46ZM152,135.42a37.61,37.61,0,0,0-8.34-4.72,1.85,1.85,0,0,0,0,.23,5.38,5.38,0,0,0,8.35,4.49Zm-11.3-5.79a37.92,37.92,0,0,0-9.68-1.7,5.37,5.37,0,1,0,9.83,3,5.57,5.57,0,0,0-.15-1.3Zm-13.09-5-3.94-7.36a5.32,5.32,0,0,0-.41,2.08,5.38,5.38,0,0,0,4.35,5.28ZM121.94,114l-4.47-8.33a5.38,5.38,0,0,0,4.47,8.33Zm-6.25-11.64L111,93.53a5.38,5.38,0,0,0,4.14,8.81,5.44,5.44,0,0,0,.57,0ZM109.84,91.4l-5-9.25a5.38,5.38,0,0,0,3.53,9.44,5.61,5.61,0,0,0,1.43-.19Zm-6.32-11.79-5-9.41a5.38,5.38,0,0,0,3.1,9.78,5.32,5.32,0,0,0,2-.37Zm-6-11.11L92.47,59a5.38,5.38,0,0,0,2.39,10.2,5.33,5.33,0,0,0,2.69-.72ZM91.17,56.59l-5-9.39a5.38,5.38,0,1,0,5,9.39Zm-6.06-11.3-.17-.3-2.67,1.78a5.43,5.43,0,0,0,2.84-1.48Zm-6.3,3.79-2.28,1.53v.09q.54,3,1,5.92a5.37,5.37,0,0,0,1.23-7.54Zm-.72,10.45c.54,3.14,1.06,6.29,1.56,9.43a5.33,5.33,0,0,0,1.65.26,5.38,5.38,0,1,0-3.21-9.69Zm3.39,21.3q.78,5.24,1.48,10.49a5.38,5.38,0,0,0-1.48-10.49Zm1.88,13.44q.44,3.24.84,6.48a5.37,5.37,0,1,0-.84-6.48Zm1.28,10.08c.31,2.52.6,5,.89,7.55a5.39,5.39,0,0,0-.89-7.55Zm1.17,10.07q.56,5.07,1.06,10.16a5.38,5.38,0,1,0-1.06-10.16ZM88,136.31c.31,3.56.59,7.13.86,10.7a5.38,5.38,0,0,0-.8-10.7Zm1.68,22.61q.3,5,.56,10.05a5.39,5.39,0,0,0-.56-10.05Zm.74,13.75c.1,2.12.2,4.24.28,6.36a5.38,5.38,0,1,0-.28-6.36Zm.39,9.13q.17,4.51.3,9a5.39,5.39,0,0,0-.3-9Zm58.3-33.88a5.38,5.38,0,1,1-5.38,5.38,5.38,5.38,0,0,1,5.38-5.38Zm-13.55,0a5.38,5.38,0,1,1-5.38,5.38,5.37,5.37,0,0,1,5.38-5.38Zm-13.56,0a5.38,5.38,0,1,1-5.37,5.38,5.38,5.38,0,0,1,5.37-5.38Zm-13.55,0A5.38,5.38,0,1,1,103,153.3a5.38,5.38,0,0,1,5.38-5.38Zm-13.55,0a5.38,5.38,0,1,1-5.38,5.38,5.38,5.38,0,0,1,5.38-5.38Zm60.92,10.75a5.38,5.38,0,1,1-5.38,5.39,5.38,5.38,0,0,1,5.38-5.39Zm-54.21,0a5.38,5.38,0,1,1-5.38,5.39,5.38,5.38,0,0,1,5.38-5.39ZM122,125.56a5.38,5.38,0,1,1-5.37,5.37,5.37,5.37,0,0,1,5.37-5.37Zm-13.55,0a5.38,5.38,0,1,1-5.38,5.37,5.37,5.37,0,0,1,5.38-5.37Zm-13.55,0a5.38,5.38,0,1,1-5.38,5.37,5.37,5.37,0,0,1,5.38-5.37Zm47.37,10.75a5.38,5.38,0,1,1-5.38,5.38,5.38,5.38,0,0,1,5.38-5.38Zm-13.56,0a5.38,5.38,0,1,1-5.37,5.38,5.38,5.38,0,0,1,5.37-5.38Zm-13.55,0a5.38,5.38,0,1,1-5.38,5.38,5.38,5.38,0,0,1,5.38-5.38Zm-13.55,0a5.38,5.38,0,1,1-5.38,5.38,5.38,5.38,0,0,1,5.38-5.38Zm6.84-33.12a5.38,5.38,0,1,1-5.38,5.38,5.38,5.38,0,0,1,5.38-5.38Zm-13.55,0a5.38,5.38,0,1,1-5.38,5.38,5.38,5.38,0,0,1,5.38-5.38ZM115.12,114a5.38,5.38,0,1,1-5.38,5.38,5.38,5.38,0,0,1,5.38-5.38Zm-13.55,0a5.38,5.38,0,1,1-5.38,5.38,5.38,5.38,0,0,1,5.38-5.38ZM94.86,80.83a5.38,5.38,0,1,1-5.38,5.38,5.38,5.38,0,0,1,5.38-5.38Zm6.71,10.76A5.38,5.38,0,1,1,96.19,97a5.38,5.38,0,0,1,5.38-5.37ZM88,69.22a5.38,5.38,0,1,1-5.39,5.38A5.38,5.38,0,0,1,88,69.22Z" transform="translate(-32.73 -1)" fill="#db8155" fill-rule="evenodd"/>
  <polygon points="20.88 5.27 26.2 4.55 29.8 30.95 24.49 31.68 20.88 5.27 20.88 5.27" fill="#a15641" fill-rule="evenodd"/>
  <path d="M55.6,1.05a4.91,4.91,0,1,1-4.2,5.53,4.9,4.9,0,0,1,4.2-5.53Z" transform="translate(-32.73 -1)" fill="#f58a43" fill-rule="evenodd"/>
  <polygon points="45.08 5.27 39.77 4.55 36.16 30.95 41.47 31.68 45.08 5.27 45.08 5.27" fill="#a15641" fill-rule="evenodd"/>
  <path d="M75.82,1.05A4.91,4.91,0,1,0,80,6.58a4.9,4.9,0,0,0-4.2-5.53Z" transform="translate(-32.73 -1)" fill="#f58a43" fill-rule="evenodd"/>
  <path d="M51.16,41.1A19,19,0,0,1,32.73,22.67,19,19,0,0,1,51.16,41.1Z" transform="translate(-32.73 -1)" fill="#a15641" fill-rule="evenodd"/>
  <path d="M98.69,22.67A19,19,0,0,0,80.26,41.1,19,19,0,0,0,98.69,22.67Z" transform="translate(-32.73 -1)" fill="#a15641" fill-rule="evenodd"/>
  <path d="M48.06,52.44,61,81.09a5.25,5.25,0,0,0,9.38,0L83.35,52.44c1.75-3.86,2.58-8.2,0-11.31L70.4,25.5a5.88,5.88,0,0,0-9.38,0l-13,15.63c-2.58,3.11-1.74,7.45,0,11.31Z" transform="translate(-32.73 -1)" fill="#f58a43" fill-rule="evenodd"/>
  <path d="M57.2,82.28l6.25-11.45a2.78,2.78,0,0,1,4.52,0l6.25,11.45c.84,1.54,1.24,3.28,0,4.53L68,93.05a3.21,3.21,0,0,1-4.52,0L57.2,86.81c-1.24-1.25-.84-3,0-4.53Z" transform="translate(-32.73 -1)" fill="#a15641" fill-rule="evenodd"/>
  <path d="M56.79,42.28a4.18,4.18,0,1,1-4.18,4.18,4.18,4.18,0,0,1,4.18-4.18Z" transform="translate(-32.73 -1)" fill="#231f20" fill-rule="evenodd"/>
  <path d="M74.63,42.28a4.18,4.18,0,1,1-4.19,4.18,4.18,4.18,0,0,1,4.19-4.18Z" transform="translate(-32.73 -1)" fill="#231f20" fill-rule="evenodd"/>
</svg>
